<?xml version="1.0" encoding="utf-8"?>
<!-- Svg Vector Icons : http://www.onlinewebfonts.com/icon -->
<!DOCTYPE svg PUBLIC "-//W3C//DTD SVG 1.1//EN" "http://www.w3.org/Graphics/SVG/1.1/DTD/svg11.dtd">
<svg version="1.1" xmlns="http://www.w3.org/2000/svg" xmlns:xlink="http://www.w3.org/1999/xlink" x="0px" y="0px" viewBox="0 0 1000 1000" enable-background="new 0 0 1000 1000" xml:space="preserve">
<metadata> Svg Vector Icons : http://www.onlinewebfonts.com/icon </metadata>
<g><path d="M940,10H549.5c-15.3,0-27.5,12.3-27.5,27.5v176.4H226.7c-29.5,0-53.7,18.6-53.7,41.2l-67.8,460H87.5c-30.4,0-55,24.8-55,55.1v164.7c0,30.4,24.6,55.1,55,55.1h756.3c30.4,0,55-24.7,55-55.1V770.2c0-30.4-24.6-55.1-55-55.1h-17.6l-67.8-460c0-1.9-0.4-3.8-0.9-5.8H940c15.2,0,27.5-12.4,27.5-27.5V37.5C967.5,22.3,955.3,10,940,10L940,10z M303.4,289.9c0-8.7,7.4-15.8,16.4-15.8h311.3c9.1,0,16.5,7.1,16.5,15.8v56.7c0,8.7-7.4,16-16.5,16H319.8c-9.1,0-16.4-7.2-16.4-16V289.9L303.4,289.9z M573.6,549.5h-66.1c-14.9,0-26.9-11.7-26.9-25.9v-63.6c0-14.3,12.1-25.9,26.9-25.9h66.1c14.9,0,26.9,11.7,26.9,25.9v63.6C600.5,537.8,588.4,549.5,573.6,549.5z M600.5,604.9v63.6c0,14.3-12.1,25.9-26.9,25.9h-66.1c-14.9,0-26.9-11.7-26.9-25.9v-63.6c0-14.3,12.1-25.9,26.9-25.9h66.1C588.4,578.9,600.5,590.5,600.5,604.9z M423.8,550.2h-66.1c-14.9,0-27-11.7-27-25.9v-63.6c0-14.3,12.2-25.9,27-25.9h66.1c14.9,0,26.9,11.7,26.9,25.9v63.6C450.8,538.6,438.8,550.2,423.8,550.2z M450.8,605.6v63.6c0,14.3-12.1,25.9-26.9,25.9h-66.1c-14.9,0-27-11.7-27-25.9v-63.6c0-14.4,12.2-25.9,27-25.9h66.1C438.8,579.6,450.8,591.2,450.8,605.6z M832.9,758c15.2,0,27.6,12.3,27.6,27.6V825c0,15.3-12.4,27.5-27.6,27.5H98.4c-15.2,0-27.5-12.2-27.5-27.5v-39.4c0-15.2,12.3-27.6,27.5-27.6H832.9z M918.2,178.7c0,15.3-12.3,27.5-27.5,27.5H598.8c-15.3,0-27.5-12.2-27.5-27.5V80.8c0-15.3,12.2-27.5,27.5-27.5h291.9c15.2,0,27.5,12.2,27.5,27.5V178.7L918.2,178.7z"/></g>
</svg>