<?xml version="1.0" encoding="utf-8"?>
<!-- Svg Vector Icons : http://www.onlinewebfonts.com/icon -->
<!DOCTYPE svg PUBLIC "-//W3C//DTD SVG 1.1//EN" "http://www.w3.org/Graphics/SVG/1.1/DTD/svg11.dtd">
<svg version="1.1" xmlns="http://www.w3.org/2000/svg" xmlns:xlink="http://www.w3.org/1999/xlink" x="0px" y="0px" viewBox="0 0 1000 1000" enable-background="new 0 0 1000 1000" xml:space="preserve">
<metadata> Svg Vector Icons : http://www.onlinewebfonts.com/icon </metadata>
<g><path d="M801.6,675H196.8V455.5c-18.9,15.8-42,26.6-67.4,30.5v412.3c0,18.6,15.1,33.7,33.7,33.7h672.1c18.6,0,33.6-15.1,33.6-33.7V485.8c-25.5-4.3-48.6-15.6-67.3-31.8V675L801.6,675z M855.1,136.9c4.8,0,9.4,1,13.8,2.6v-37.9c0-18.6-15.1-33.7-33.6-33.7H163.1c-18.6,0-33.7,15.1-33.7,33.7V140c4.9-2,10-3.1,15.4-3.1L855.1,136.9L855.1,136.9z M855.1,177.4h-53.5H196.8h-51.9L10,322.2c0,54.1,43.9,98,98,98c11.2,0,21.9-2,32-5.5c0.4-0.1,0.8-0.3,1.2-0.4c3.1-1.1,6-2.3,9-3.7c0.4-0.2,0.8-0.4,1.2-0.6c3.1-1.5,6-3.2,8.9-5c0.1-0.1,0.3-0.2,0.4-0.3c12.5-8,23-18.7,30.7-31.3c0-0.1,0.1-0.2,0.2-0.3c1.9-3.1,3.6-6.4,5.2-9.7l0,0c5.8-12.5,9.2-26.4,9.2-41.2c0,54.1,43.9,98,98,98c54.1,0,98-43.9,98-98c0,54.1,43.9,98,98,98c54.1,0,98-43.9,98-98c0,54.1,43.9,98,98,98c54.1,0,97.9-43.9,97.9-98c0,17.3,4.6,33.5,12.4,47.7c0.4,0.6,0.8,1.2,1.2,1.9c1.5,2.4,3,4.9,4.7,7.2c0.5,0.8,1.1,1.5,1.7,2.2c1.7,2.2,3.5,4.4,5.3,6.4c0.5,0.6,1.1,1.2,1.6,1.8c2.3,2.4,4.7,4.7,7.2,6.9c0.1,0.1,0.3,0.3,0.4,0.3c8.6,7.4,18.5,13.2,29.3,17.2c0.1,0,0.2,0.1,0.3,0.1c3.6,1.3,7.2,2.4,11,3.3h0c7.4,1.8,15.1,2.9,23,2.9c54.1,0,98-43.9,98-98L855.1,177.4z"/></g>
</svg>