<?xml version="1.0" encoding="utf-8"?>
<!-- Svg Vector Icons : http://www.onlinewebfonts.com/icon -->
<!DOCTYPE svg PUBLIC "-//W3C//DTD SVG 1.1//EN" "http://www.w3.org/Graphics/SVG/1.1/DTD/svg11.dtd">
<svg version="1.1" xmlns="http://www.w3.org/2000/svg" xmlns:xlink="http://www.w3.org/1999/xlink" x="0px" y="0px" viewBox="0 0 1000 1000" enable-background="new 0 0 1000 1000" xml:space="preserve">
<metadata> Svg Vector Icons : http://www.onlinewebfonts.com/icon </metadata>
<g><path d="M673.4,929.7H326.6c-16.7,0-30.2,13.5-30.2,30.2S310,990,326.6,990h346.8c16.7,0,30.2-13.5,30.2-30.2C703.5,943.2,690,929.7,673.4,929.7z"/><path d="M985,459l-4-25.5H18.9L15,459c-3.3,21.3-5,42.9-5,64.3c0,148.2,79,287.1,211.3,371.6l7.4,4.7h8.8h524.9h8.8l7.4-4.7C911,810.3,990,671.4,990,523.2C990,501.9,988.3,480.3,985,459z M753.5,839.2h-507C136,765.5,70.3,648,70.3,523.2c0-9.8,0.4-19.7,1.2-29.5h856.9c0.8,9.9,1.2,19.7,1.2,29.5C929.7,648,864,765.5,753.5,839.2z"/><path d="M290.3,214.4c30.4,30.4,30.4,79.9,0,110.3c-11.8,11.8-11.8,30.9,0,42.6c5.9,5.9,13.6,8.8,21.3,8.8c7.7,0,15.4-2.9,21.3-8.8c53.9-53.9,53.9-141.7,0-195.6c-14.7-14.7-22.8-34.3-22.8-55.2c0-20.8,8.1-40.4,22.8-55.2c11.8-11.8,11.8-30.9,0-42.6c-11.8-11.8-30.9-11.8-42.6,0c-26.1,26.1-40.5,60.9-40.5,97.8C249.7,153.6,264.1,188.3,290.3,214.4C290.2,214.4,290.2,214.4,290.3,214.4z"/><path d="M484.2,324.8c-11.8,11.8-11.8,30.9,0,42.6c5.9,5.9,13.6,8.8,21.3,8.8c7.7,0,15.4-2.9,21.3-8.8c53.9-53.9,53.9-141.7,0-195.6c0,0,0,0,0,0C512.1,157,504,137.5,504,116.6c0-20.8,8.1-40.4,22.9-55.2c11.8-11.8,11.8-30.9,0-42.6c-11.8-11.8-30.9-11.8-42.6,0c-26.1,26.1-40.5,60.9-40.5,97.8c0,36.9,14.4,71.7,40.5,97.8C514.6,244.9,514.6,294.4,484.2,324.8z"/><path d="M667.1,324.8c-11.8,11.8-11.8,30.9,0,42.6c5.9,5.9,13.6,8.8,21.3,8.8c7.7,0,15.4-2.9,21.3-8.8c53.9-53.9,53.9-141.7,0-195.6c0,0,0,0,0,0c-14.7-14.7-22.8-34.3-22.8-55.1c0-20.8,8.1-40.4,22.9-55.2c11.8-11.8,11.8-30.9,0-42.6c-11.8-11.8-30.9-11.8-42.6,0C641,45,626.6,79.7,626.6,116.6c0,36.9,14.4,71.7,40.5,97.8C697.5,244.9,697.5,294.4,667.1,324.8z"/></g>
</svg>